<?xml version="1.0" encoding="utf-8"?>
<!-- Generator: Adobe Illustrator 19.2.0, SVG Export Plug-In . SVG Version: 6.00 Build 0)  -->
<svg version="1.1" id="Layer_1" xmlns="http://www.w3.org/2000/svg" xmlns:xlink="http://www.w3.org/1999/xlink" x="0px" y="0px"
	 viewBox="0 0 105 105" style="enable-background:new 0 0 105 105;" xml:space="preserve">
<style type="text/css">
	.st0{stroke:#000000;stroke-width:2;stroke-miterlimit:10;}
	.st1{enable-background:new    ;}
	.st2{fill:#FFFFFF;stroke:#FFFFFF;stroke-miterlimit:10;}
	.st3{fill:#FFFFFF;}
	.st4{stroke:#000000;stroke-miterlimit:10;}
</style>
<circle class="st2" cx="52.5" cy="52.5" r="44.5"/>
<g class="st1">
	<path class="st4" d="M50.6,43.1v24.3h-1.7v-6c-1,2.1-2.5,3.7-4.5,4.9c-2,1.2-4.2,1.8-6.5,1.8c-3.5,0-6.6-1.3-9.1-3.8
		c-2.5-2.5-3.8-5.5-3.8-9c0-3.5,1.3-6.5,3.8-9s5.5-3.8,9.1-3.8c2.3,0,4.5,0.6,6.6,1.8c2.1,1.2,3.6,2.8,4.4,4.9v-6.1H50.6z
		 M26.7,55.3c0,3,1.1,5.6,3.3,7.9s4.8,3.3,7.9,3.3c3,0,5.6-1.1,7.8-3.3s3.2-4.8,3.2-7.9c0-3-1.1-5.7-3.3-7.9
		c-2.2-2.2-4.8-3.3-7.8-3.3c-3,0-5.6,1.1-7.9,3.4S26.7,52.3,26.7,55.3z"/>
	<path class="st4" d="M68.8,66.2v1.5c-2.6,0-4.7-0.9-6.5-2.6c-1.8-1.7-2.7-3.9-2.7-6.6V33.3h1.7v9.8h7.5v1.5h-7.5v13.9
		c0,2.2,0.7,4,2.2,5.5S66.7,66.2,68.8,66.2z"/>
</g>
<circle class="st4" cx="75.5" cy="66.7" r="1.4"/>
</svg>
